<?xml version="1.0" encoding="UTF-8" standalone="no"?>
<svg
   xmlns:dc="http://purl.org/dc/elements/1.1/"
   xmlns:cc="http://creativecommons.org/ns#"
   xmlns:rdf="http://www.w3.org/1999/02/22-rdf-syntax-ns#"
   xmlns:svg="http://www.w3.org/2000/svg"
   xmlns="http://www.w3.org/2000/svg"
   xmlns:sodipodi="http://sodipodi.sourceforge.net/DTD/sodipodi-0.dtd"
   xmlns:inkscape="http://www.inkscape.org/namespaces/inkscape"
   version="1.1"
   id="svg78"
   width="32"
   height="32"
   viewBox="0 0 32 32"
   sodipodi:docname="nibl-logo.svg"
   inkscape:version="1.0.2 (e86c870879, 2021-01-15)"
   inkscape:export-filename="/home/apg/Devel/nibl/nibl-logo-256.png"
   inkscape:export-xdpi="768"
   inkscape:export-ydpi="768">
  <metadata
     id="metadata84">
    <rdf:RDF>
      <cc:Work
         rdf:about="">
        <dc:format>image/svg+xml</dc:format>
        <dc:type
           rdf:resource="http://purl.org/dc/dcmitype/StillImage" />
        <dc:title></dc:title>
      </cc:Work>
    </rdf:RDF>
  </metadata>
  <defs
     id="defs82" />
  <sodipodi:namedview
     pagecolor="#ffffff"
     bordercolor="#666666"
     borderopacity="1"
     objecttolerance="10"
     gridtolerance="10"
     guidetolerance="10"
     inkscape:pageopacity="0"
     inkscape:pageshadow="2"
     inkscape:window-width="1461"
     inkscape:window-height="954"
     id="namedview80"
     showgrid="true"
     inkscape:zoom="7.4456033"
     inkscape:cx="6.7998512"
     inkscape:cy="3.415889"
     inkscape:window-x="102"
     inkscape:window-y="87"
     inkscape:window-maximized="0"
     inkscape:current-layer="layer4">
    <inkscape:grid
       type="xygrid"
       id="grid2158" />
  </sodipodi:namedview>
  <g
     inkscape:groupmode="layer"
     id="layer4"
     inkscape:label="BACKGROUND CIRCLE"
     style="opacity:1">
    <path
       id="path3000"
       style="fill:#2ad9ff;fill-opacity:1;stroke:none;stroke-width:0.941176;stroke-opacity:1"
       d="M 32,14 C 32,22.836556 26.836556,32 18,32 9.163444,32 0,26.836556 0,18 0,13.581722 0.40778332,8.2506618 2.8638322,4.898818 4.9109286,2.1050839 9.581722,0 14,0 18.418278,0 22.918278,1.290861 26.313708,3.6862915 29.709139,6.081722 32,9.581722 32,14 Z"
       sodipodi:nodetypes="sssssss" />
  </g>
  <g
     inkscape:groupmode="layer"
     id="layer3"
     inkscape:label="NIB OUTLINE 1"
     style="display:inline"
     sodipodi:insensitive="true">
    <path
       style="fill:#ffffff;fill-opacity:1;stroke:none;stroke-width:1px;stroke-linecap:butt;stroke-linejoin:miter;stroke-opacity:1"
       d="M 11,27 H 10 V 23 H 9 v -7 h 1 v -1 h 1 v -3 h 1 v -2 h 1 V 6 h 1 V 4 h 1 V 3 h 3 v 1 h 1 v 2 h 1 v 4 h 1 v 2 h 1 v 3 h 1 v 1 h 1 l 0.03596,7 H 23 l 0.03596,4 H 22 v 1 H 11"
       id="path2997"
       sodipodi:nodetypes="cccccccccccccccccccccccccccccccccccc" />
  </g>
  <g
     inkscape:groupmode="layer"
     id="layer1"
     inkscape:label="BLCK NIB"
     sodipodi:insensitive="true">
    <path
       style="fill:#000000;fill-opacity:1;stroke:none;stroke-width:1px;stroke-linecap:butt;stroke-linejoin:miter;stroke-opacity:1"
       d="m 15,4 v 2 h -1 v 4 h -1 v 2 h -1 v 3 h -1 v 1 h -1 v 7 h 1 v 4 h 11 v -4 h 1 V 16 H 22 V 15 H 21 V 12 H 20 V 10 H 19 V 6 H 18 V 4 h -1 v 14 h 1 v 1 h 1 v 1 h -1 v 1 h -3 v -1 h -1 v -1 h 1 v -1 h 1 V 4 Z"
       id="path2161" />
  </g>
  <g
     inkscape:groupmode="layer"
     id="layer2"
     inkscape:label="L">
    <path
       style="fill:none;stroke:#000000;stroke-width:1px;stroke-linecap:butt;stroke-linejoin:miter;stroke-opacity:1"
       d="m 15.484665,23 v 2 H 18 v -1 h -2 v -2 h -1 v 3 h 3 v 0 0"
       id="path2990" />
    <path
       style="fill:#ffffff;stroke:none;stroke-width:1px;stroke-linecap:butt;stroke-linejoin:miter;stroke-opacity:1;fill-opacity:1"
       d="m 15,22 v 3 h 3 v -1 h -2 v -2 h -1 v 0 0 0"
       id="path2992" />
  </g>
</svg>
